<svg xmlns="http://www.w3.org/2000/svg" width="256" height="256" viewBox="0 0 256 256">
  <g fill="none" fill-rule="evenodd">
    <rect width="256" height="256" fill="#0071BA"/>
    <g fill="#FFF" fill-opacity=".4" fill-rule="nonzero" transform="translate(64 86)">
      <path d="M108.585,80.242 C106.976,80.242 105.478,79.218 104.95,77.605 C104.293,75.597 105.388,73.436 107.397,72.779 C114.675,70.397 119.377,64.018 119.377,56.527 C119.377,47.04 111.659,39.321 102.172,39.321 C101.513,39.321 100.804,39.373 99.941,39.485 L96.2,39.97 L95.663,36.235 C93.364,20.219 79.412,8.141 63.209,8.141 C49.814,8.141 37.889,16.16 32.832,28.571 L31.88,30.906 L29.36,30.952 C17.779,31.165 8.357,40.756 8.357,52.331 C8.357,60.781 13.263,68.487 20.855,71.962 C22.776,72.842 23.621,75.112 22.741,77.033 C21.861,78.954 19.592,79.797 17.671,78.92 C7.363,74.202 0.703,63.766 0.703,52.331 C0.703,37.451 12.168,24.986 26.731,23.455 C33.441,9.425 47.504,0.49 63.208,0.49 C82.004,0.49 98.343,13.668 102.58,31.674 C116.099,31.893 127.03,42.958 127.03,56.528 C127.03,67.221 120.096,76.674 109.777,80.051 C109.382,80.18 108.98,80.242 108.585,80.242 Z"/>
      <path d="M50.12 82.02C50.119 82.019 50.119 82.019 50.118 82.019 50.117 82.019 50.116 82.018 50.115 82.018L50.114 82.018C50.114 82.018 50.113 82.017 50.113 82.017L50.112 82.016C50.112 82.016 50.111 82.016 50.111 82.015L50.11 82.015 50.109 82.014C50.11 82.013 50.108 82.013 50.108 82.013L50.107 82.012C50.107 82.012 50.106 82.012 50.106 82.012L50.105 82.011C50.106 82.012 50.104 82.01 50.104 82.01 50.104 82.01 50.102 82.009 50.101 82.009L50.1 82.008 50.1 82.008C50.099 82.007 50.099 82.007 50.099 82.007L50.098 82.006C50.095 82.005 50.096 82.005 50.095 82.005 50.094 82.006 50.094 82.004 50.093 82.004L50.092 82.003C50.092 82.003 50.091 82.002 50.09 82.002L50.089 82.001C50.088 82 50.086 82 50.085 82 50.084 82 50.082 81.999 50.081 81.999 50.08 81.998 50.08 81.998 50.079 81.998L50.078 81.998C50.077 81.997 50.076 81.997 50.075 81.997 50.074 81.996 50.072 81.996 50.072 81.996 50.071 81.996 50.071 81.996 50.071 81.996L50.069 81.995C50.068 81.995 50.068 81.994 50.068 81.994L50.067 81.994C50.008 81.973 49.945 81.96 49.879 81.957L49.877 81.957 49.875 81.957C49.874 81.957 49.874 81.957 49.873 81.957 49.873 81.957 49.873 81.957 49.872 81.957 49.872 81.957 49.871 81.957 49.871 81.957L49.87 81.957C49.869 81.956 49.869 81.956 49.869 81.956 49.868 81.956 49.867 81.956 49.867 81.956 49.866 81.956 49.865 81.956 49.865 81.956L49.864 81.956 49.863 81.956 49.862 81.956C49.861 81.956 49.86 81.956 49.86 81.956L49.859 81.956 49.86 81.956 49.859 81.956 49.858 81.956C49.857 81.956 49.857 81.956 49.857 81.956L49.856 81.956 49.855 81.956 49.854 81.956 49.853 81.956C49.852 81.956 49.852 81.956 49.852 81.956 48.196 81.956 46.841 80.608 46.831 78.956L46.831 45.29 49.398 45.29C49.402 45.29 49.407 45.29 49.411 45.29 49.804 45.307 50.072 45.005 50.072 44.642 50.072 44.371 49.906 44.139 49.67 44.042L37.291 35.498C37.069 35.345 36.776 35.345 36.554 35.498L24.078 44.109C23.844 44.27 23.743 44.565 23.827 44.836 23.912 45.107 24.162 45.291 24.446 45.291L27.026 45.291 27.028 78.965C27.041 81.293 28.911 83.193 31.29 83.253 31.317 83.256 31.343 83.258 31.37 83.258L49.851 83.258C49.855 83.258 49.858 83.258 49.862 83.258 50.032 83.255 50.186 83.187 50.3 83.078 50.3 83.078 50.3 83.078 50.301 83.077 50.303 83.075 50.305 83.073 50.306 83.072 50.307 83.071 50.308 83.071 50.309 83.069 50.309 83.069 50.31 83.068 50.31 83.068L50.311 83.067 50.312 83.066 50.313 83.065 50.314 83.064C50.315 83.063 50.315 83.063 50.315 83.063 50.317 83.062 50.316 83.062 50.317 83.061 50.317 83.061 50.317 83.061 50.318 83.06L50.319 83.059C50.319 83.059 50.319 83.059 50.32 83.058 50.432 82.942 50.502 82.785 50.503 82.611L50.503 82.609 50.503 82.608 50.503 82.607 50.503 82.606 50.503 82.605 50.503 82.604 50.503 82.603 50.503 82.601C50.498 82.345 50.343 82.121 50.12 82.02zM76.889 82.02C76.889 82.02 76.888 82.019 76.887 82.019 76.886 82.019 76.885 82.018 76.884 82.018L76.883 82.018C76.882 82.017 76.882 82.017 76.882 82.017L76.881 82.016 76.88 82.016C76.88 82.016 76.879 82.015 76.879 82.015 76.879 82.015 76.878 82.014 76.878 82.014 76.879 82.013 76.877 82.013 76.876 82.013L76.875 82.012 76.874 82.012C76.873 82.012 76.873 82.011 76.873 82.011 76.871 82.012 76.871 82.01 76.871 82.01L76.869 82.009 76.868 82.008 76.867 82.008C76.867 82.008 76.866 82.007 76.866 82.007L76.865 82.006C76.864 82.005 76.863 82.005 76.863 82.005 76.862 82.006 76.862 82.004 76.86 82.004L76.859 82.003 76.858 82.002C76.858 82.002 76.857 82.002 76.856 82.001 76.855 82 76.853 82 76.852 82 76.851 82 76.849 81.999 76.848 81.999 76.847 81.998 76.847 81.998 76.846 81.998 76.845 81.998 76.845 81.998 76.844 81.997 76.844 81.997 76.843 81.997 76.842 81.996 76.839 81.995 76.841 81.995 76.84 81.995 76.837 81.995 76.839 81.995 76.838 81.994 76.838 81.994 76.837 81.993 76.836 81.993L76.835 81.992 76.834 81.992C76.775 81.971 76.712 81.958 76.646 81.955L76.644 81.955C76.643 81.955 76.643 81.955 76.643 81.955 76.642 81.955 76.641 81.955 76.641 81.955 76.641 81.955 76.64 81.955 76.64 81.955L76.639 81.955 76.638 81.955 76.637 81.954C76.636 81.954 76.635 81.954 76.635 81.954 76.634 81.954 76.633 81.954 76.633 81.954L76.632 81.954C76.631 81.954 76.631 81.954 76.631 81.954L76.63 81.954C76.629 81.954 76.628 81.954 76.628 81.954 76.628 81.954 76.627 81.954 76.626 81.954L76.625 81.954C76.625 81.954 76.624 81.954 76.624 81.954L76.623 81.954C76.622 81.954 76.622 81.954 76.622 81.954L76.621 81.954 76.62 81.954 76.619 81.954 76.618 81.954C76.617 81.954 76.617 81.954 76.617 81.954 74.962 81.954 73.607 80.606 73.597 78.954L73.597 52.829 76.176 52.829C76.185 52.828 76.192 52.828 76.202 52.829 76.56 52.829 76.85 52.539 76.85 52.181 76.85 51.91 76.684 51.678 76.448 51.581L64.068 43.037C63.846 42.884 63.553 42.884 63.331 43.037L50.86 51.647C50.626 51.808 50.525 52.103 50.609 52.374 50.694 52.645 50.944 52.829 51.228 52.829L53.796 52.829 53.798 78.964C53.809 81.293 55.682 83.194 58.062 83.253 58.088 83.256 58.114 83.257 58.14 83.257L76.621 83.257C76.625 83.257 76.628 83.257 76.632 83.257 76.802 83.254 76.956 83.186 77.07 83.077 77.07 83.077 77.07 83.077 77.071 83.076 77.073 83.074 77.077 83.072 77.076 83.071 77.077 83.07 77.078 83.07 77.079 83.068 77.08 83.067 77.08 83.067 77.08 83.067L77.081 83.066 77.082 83.065C77.082 83.065 77.083 83.065 77.083 83.064L77.084 83.063C77.085 83.063 77.085 83.062 77.085 83.062 77.088 83.061 77.087 83.061 77.087 83.06 77.087 83.06 77.087 83.06 77.088 83.059 77.088 83.059 77.088 83.059 77.089 83.058 77.089 83.058 77.089 83.058 77.09 83.057 77.202 82.941 77.272 82.784 77.273 82.61L77.273 82.608 77.273 82.607 77.273 82.606 77.273 82.605 77.273 82.604 77.273 82.603 77.273 82.602 77.273 82.6C77.267 82.345 77.112 82.121 76.889 82.02zM103.667 82.02L103.665 82.019C103.664 82.019 103.663 82.018 103.662 82.018L103.661 82.018C103.66 82.017 103.66 82.017 103.66 82.017L103.659 82.016C103.658 82.016 103.658 82.016 103.658 82.015L103.657 82.015 103.656 82.014C103.655 82.013 103.655 82.013 103.655 82.013 103.655 82.013 103.654 82.013 103.654 82.012L103.653 82.012C103.653 82.012 103.652 82.011 103.652 82.011 103.651 82.012 103.651 82.01 103.65 82.01 103.651 82.009 103.649 82.009 103.648 82.009L103.647 82.008C103.646 82.008 103.646 82.008 103.646 82.008 103.645 82.007 103.645 82.007 103.645 82.007L103.644 82.006C103.641 82.005 103.642 82.005 103.642 82.005 103.641 82.006 103.641 82.004 103.639 82.004L103.638 82.003C103.639 82.002 103.637 82.002 103.636 82.002 103.636 82.002 103.635 82.002 103.635 82.001 103.634 82 103.632 82 103.631 82 103.63 82 103.628 81.999 103.627 81.999L103.625 81.998C103.625 81.998 103.624 81.998 103.623 81.997L103.621 81.996C103.618 81.995 103.618 81.995 103.619 81.995 103.616 81.995 103.616 81.995 103.617 81.994 103.616 81.994 103.616 81.993 103.616 81.993 103.615 81.993 103.614 81.992 103.614 81.992L103.613 81.992C103.554 81.971 103.491 81.958 103.425 81.955L103.424 81.955C103.423 81.955 103.422 81.955 103.422 81.955 103.421 81.955 103.42 81.955 103.419 81.955L103.418 81.955 103.417 81.955 103.416 81.955C103.415 81.954 103.415 81.954 103.414 81.954 103.414 81.954 103.413 81.954 103.412 81.954 103.412 81.954 103.411 81.954 103.41 81.954L103.409 81.954C103.409 81.954 103.408 81.954 103.408 81.954L103.407 81.954C103.406 81.954 103.405 81.954 103.405 81.954L103.403 81.954C103.403 81.954 103.403 81.954 103.402 81.954 103.402 81.954 103.401 81.954 103.401 81.954L103.4 81.954C103.4 81.954 103.399 81.954 103.399 81.954L103.398 81.954 103.397 81.954 103.396 81.954 103.4 81.954C103.4 81.954 103.399 81.954 103.399 81.954 101.744 81.954 100.389 80.606 100.379 78.954L100.379 60.365 102.952 60.365C102.956 60.365 102.961 60.365 102.965 60.365 103.33 60.356 103.626 60.08 103.626 59.717 103.626 59.446 103.46 59.214 103.224 59.117L90.844 50.573C90.623 50.42 90.329 50.42 90.107 50.573L77.631 59.183C77.397 59.344 77.296 59.639 77.38 59.91 77.465 60.181 77.715 60.365 77.999 60.365L80.572 60.365 80.574 78.964C80.587 81.293 82.459 83.195 84.838 83.253 84.864 83.256 84.89 83.257 84.916 83.257L103.397 83.257C103.401 83.257 103.404 83.257 103.408 83.257 103.578 83.254 103.732 83.186 103.846 83.077L103.847 83.076C103.849 83.074 103.852 83.072 103.852 83.071 103.853 83.07 103.854 83.07 103.855 83.068 103.855 83.068 103.856 83.067 103.856 83.067L103.857 83.066 103.858 83.065 103.859 83.064 103.86 83.063 103.861 83.062C103.864 83.061 103.862 83.061 103.863 83.06 103.863 83.06 103.863 83.06 103.864 83.059L103.865 83.058C103.865 83.058 103.865 83.058 103.866 83.057 103.978 82.941 104.048 82.784 104.049 82.61L104.049 82.608 104.049 82.607 104.049 82.606 104.049 82.605 104.049 82.604 104.049 82.603 104.049 82.602 104.049 82.6C104.045 82.345 103.889 82.121 103.667 82.02z"/>
    </g>
  </g>
</svg>
